<svg width="148" height="147" viewBox="0 0 148 147" fill="none" xmlns="http://www.w3.org/2000/svg">
<path d="M146.804 142.459C147.439 142.224 147.763 141.518 147.527 140.883L143.69 130.535C143.455 129.9 142.749 129.576 142.114 129.811C141.479 130.047 141.155 130.752 141.391 131.387L144.801 140.586L135.603 143.997C134.967 144.232 134.644 144.938 134.879 145.573C135.114 146.208 135.82 146.532 136.455 146.296L146.804 142.459ZM74.6458 78.0902C74.9283 77.4747 74.6584 76.7467 74.0428 76.4641C73.4273 76.1816 72.6993 76.4515 72.4167 77.0671L74.6458 78.0902ZM63.7178 43.1441L64.3952 42.1218L63.7178 43.1441ZM72.4167 77.0671C72.1342 77.6826 72.4041 78.4106 73.0197 78.6932C73.6352 78.9757 74.3632 78.7058 74.6458 78.0902L72.4167 77.0671ZM5.08797 5.7652C5.65254 6.1393 6.4135 5.9849 6.7876 5.42032C7.16171 4.85574 7.0073 4.09479 6.44273 3.72068L5.08797 5.7652ZM18.8611 11.9495C18.2965 11.5754 17.5356 11.7298 17.1615 12.2944C16.7874 12.859 16.9418 13.6199 17.5063 13.994L18.8611 11.9495ZM25.7853 19.4799C26.3499 19.854 27.1108 19.6996 27.4849 19.135C27.859 18.5704 27.7046 17.8095 27.14 17.4354L25.7853 19.4799ZM39.5584 25.6642C38.9938 25.2901 38.2329 25.4445 37.8588 26.0091C37.4847 26.5737 37.6391 27.3346 38.2037 27.7087L39.5584 25.6642ZM46.4826 33.1946C47.0472 33.5687 47.8081 33.4143 48.1822 32.8497C48.5563 32.2851 48.4019 31.5242 47.8373 31.1501L46.4826 33.1946ZM60.2557 39.3789C59.6911 39.0048 58.9302 39.1592 58.5561 39.7238C58.182 40.2884 58.3364 41.0493 58.901 41.4234L60.2557 39.3789ZM65.9919 46.4356C66.4984 46.8852 67.2735 46.8392 67.7231 46.3328C68.1728 45.8263 68.1268 45.0512 67.6203 44.6015L65.9919 46.4356ZM74.7786 54.3882C74.5033 53.7694 73.7784 53.491 73.1596 53.7664C72.5409 54.0418 72.2625 54.7667 72.5379 55.3854L74.7786 54.3882ZM74.5731 62.5268C74.6653 63.1978 75.2839 63.667 75.9549 63.5748C76.6259 63.4827 77.0951 62.864 77.0029 62.193L74.5731 62.5268ZM76.0792 74.2829C76.2725 73.6338 75.903 72.9509 75.2539 72.7576C74.6048 72.5643 73.9219 72.9338 73.7286 73.5829L76.0792 74.2829ZM70.8581 81.3015C70.6746 81.9534 71.0543 82.6307 71.7062 82.8142C72.3581 82.9978 73.0354 82.6181 73.219 81.9662L70.8581 81.3015ZM72.7592 94.2367C72.6254 93.5728 71.9788 93.143 71.3148 93.2767C70.6509 93.4105 70.2211 94.0571 70.3548 94.7211L72.7592 94.2367ZM73.4824 103.156C73.8138 103.747 74.5613 103.957 75.1519 103.626C75.7426 103.294 75.9527 102.547 75.6213 101.956L73.4824 103.156ZM83.9695 110.961C83.4053 110.586 82.6442 110.74 82.2695 111.304C81.8948 111.868 82.0485 112.629 82.6127 113.004L83.9695 110.961ZM90.5091 117.014C91.1246 117.296 91.8526 117.026 92.1352 116.411C92.4177 115.795 92.1478 115.067 91.5323 114.785L90.5091 117.014ZM103.394 120.23C102.779 119.947 102.051 120.217 101.768 120.833C101.486 121.448 101.756 122.176 102.371 122.459L103.394 120.23ZM110.279 126.089C110.895 126.371 111.623 126.101 111.905 125.486C112.188 124.87 111.918 124.142 111.302 123.86L110.279 126.089ZM123.165 129.305C122.549 129.022 121.821 129.292 121.539 129.908C121.256 130.523 121.526 131.251 122.141 131.534L123.165 129.305ZM130.05 135.164C130.665 135.446 131.393 135.177 131.676 134.561C131.958 133.945 131.688 133.217 131.073 132.935L130.05 135.164ZM142.935 138.38C142.319 138.097 141.591 138.367 141.309 138.983C141.026 139.598 141.296 140.326 141.912 140.609L142.935 138.38ZM0.948505 3.02226L5.08797 5.7652L6.44273 3.72068L2.30327 0.977743L0.948505 3.02226ZM17.5063 13.994L25.7853 19.4799L27.14 17.4354L18.8611 11.9495L17.5063 13.994ZM38.2037 27.7087L46.4826 33.1946L47.8373 31.1501L39.5584 25.6642L38.2037 27.7087ZM58.901 41.4234L63.0404 44.1664L64.3952 42.1218L60.2557 39.3789L58.901 41.4234ZM63.0404 44.1664C64.0897 44.8617 65.0743 45.6208 65.9919 46.4356L67.6203 44.6015C66.6169 43.7106 65.541 42.8811 64.3952 42.1218L63.0404 44.1664ZM72.5379 55.3854C73.549 57.6573 74.2347 60.0632 74.5731 62.5268L77.0029 62.193C76.633 59.5004 75.8837 56.8712 74.7786 54.3882L72.5379 55.3854ZM73.7286 73.5829C73.3783 74.7589 72.9419 75.9231 72.4167 77.0671L74.6458 78.0902C75.2192 76.8411 75.6962 75.5689 76.0792 74.2829L73.7286 73.5829ZM72.4167 77.0671C71.7786 78.4572 71.2604 79.8726 70.8581 81.3015L73.219 81.9662C73.5869 80.6596 74.061 79.3641 74.6458 78.0902L72.4167 77.0671ZM70.3548 94.7211C70.9504 97.6774 72.0067 100.526 73.4824 103.156L75.6213 101.956C74.2709 99.5494 73.3042 96.942 72.7592 94.2367L70.3548 94.7211ZM82.6127 113.004C83.8492 113.825 85.1649 114.561 86.555 115.199L87.5782 112.97C86.3044 112.385 85.1002 111.712 83.9695 110.961L82.6127 113.004ZM86.555 115.199L90.5091 117.014L91.5323 114.785L87.5782 112.97L86.555 115.199ZM102.371 122.459L110.279 126.089L111.302 123.86L103.394 120.23L102.371 122.459ZM122.141 131.534L130.05 135.164L131.073 132.935L123.165 129.305L122.141 131.534ZM141.912 140.609L145.866 142.424L146.889 140.195L142.935 138.38L141.912 140.609Z" fill="#A3A3A3"/>
</svg>
