<svg width="105" height="37" viewBox="0 0 105 37" fill="none" xmlns="http://www.w3.org/2000/svg">
<path d="M104.126 28.6791C104.588 28.2173 104.588 27.4687 104.126 27.0069L96.6011 19.4819C96.1393 19.0201 95.3906 19.0201 94.9289 19.4819C94.4671 19.9437 94.4671 20.6924 94.9289 21.1541L101.618 27.843L94.9288 34.5319C94.4671 34.9936 94.4671 35.7423 94.9288 36.2041C95.3906 36.6659 96.1393 36.6659 96.6011 36.2041L104.126 28.6791ZM50.847 14.0818C50.4646 13.5524 49.7255 13.4332 49.1961 13.8156C48.6667 14.1979 48.5475 14.937 48.9298 15.4664L50.847 14.0818ZM75.4479 27.843L75.4479 26.6606L75.4479 27.843ZM48.9298 15.4664C49.3122 15.9958 50.0513 16.1151 50.5807 15.7327C51.1101 15.3504 51.2293 14.6112 50.847 14.0818L48.9298 15.4664ZM4.60882 7.52093C5.23347 7.33049 5.58547 6.66972 5.39503 6.04506C5.20458 5.42041 4.54381 5.06841 3.91916 5.25885L4.60882 7.52093ZM11.5256 2.93983C10.9009 3.13027 10.5489 3.79104 10.7394 4.41569C10.9298 5.04035 11.5906 5.39235 12.2152 5.2019L11.5256 2.93983ZM19.7167 3.23889C20.3621 3.1394 20.8047 2.53554 20.7052 1.89012C20.6057 1.2447 20.0019 0.802132 19.3565 0.901617L19.7167 3.23889ZM30.2299 1.0588C29.5876 0.940832 28.9713 1.36588 28.8533 2.00818C28.7353 2.65048 29.1604 3.2668 29.8027 3.38477L30.2299 1.0588ZM38.0189 6.15041C38.6018 6.44484 39.313 6.211 39.6075 5.6281C39.9019 5.0452 39.6681 4.33398 39.0852 4.03954L38.0189 6.15041ZM47.8404 10.4895C47.3865 10.0199 46.6379 10.0073 46.1684 10.4612C45.6989 10.9151 45.6862 11.6636 46.1401 12.1331L47.8404 10.4895ZM51.1738 18.2415C51.6115 18.7261 52.3592 18.7642 52.8439 18.3265C53.3285 17.8887 53.3666 17.141 52.9289 16.6564L51.1738 18.2415ZM58.7717 21.6679C58.226 21.3091 57.4928 21.4605 57.134 22.0061C56.7752 22.5517 56.9266 23.2849 57.4722 23.6438L58.7717 21.6679ZM63.8172 26.888C64.4276 27.1203 65.1106 26.8137 65.3428 26.2034C65.5751 25.593 65.2686 24.91 64.6582 24.6777L63.8172 26.888ZM72.1418 26.4802C71.4927 26.4091 70.9088 26.8777 70.8377 27.5269C70.7666 28.1761 71.2352 28.7599 71.8844 28.831L72.1418 26.4802ZM81.8773 29.0254C82.5304 29.0254 83.0598 28.496 83.0598 27.843C83.0598 27.19 82.5304 26.6606 81.8773 26.6606L81.8773 29.0254ZM96.8605 26.6606C96.2075 26.6606 95.6781 27.19 95.6781 27.843C95.6781 28.496 96.2075 29.0254 96.8605 29.0254L96.8605 26.6606ZM1.34483 8.51605L4.60882 7.52093L3.91916 5.25885L0.655171 6.25397L1.34483 8.51605ZM12.2152 5.2019L15.4792 4.20679L14.7896 1.94471L11.5256 2.93983L12.2152 5.2019ZM15.4792 4.20679C16.8821 3.77907 18.2979 3.45758 19.7167 3.23889L19.3565 0.901617C17.8268 1.1374 16.3009 1.48393 14.7896 1.94471L15.4792 4.20679ZM29.8027 3.38477C32.6587 3.90934 35.427 4.84116 38.0189 6.15041L39.0852 4.03954C36.2916 2.62844 33.3081 1.62419 30.2299 1.0588L29.8027 3.38477ZM46.1401 12.1331C47.1379 13.1653 48.0711 14.2774 48.9298 15.4664L50.847 14.0818C49.9219 12.8009 48.9161 11.6022 47.8404 10.4895L46.1401 12.1331ZM48.9298 15.4664C49.631 16.4373 50.3805 17.3631 51.1738 18.2415L52.9289 16.6564C52.193 15.8416 51.4976 14.9827 50.847 14.0818L48.9298 15.4664ZM57.4722 23.6438C59.4627 24.9528 61.5906 26.0408 63.8172 26.888L64.6582 24.6777C62.5925 23.8918 60.6183 22.8823 58.7717 21.6679L57.4722 23.6438ZM71.8844 28.831C73.061 28.9599 74.2503 29.0254 75.4479 29.0254L75.4479 26.6606C74.3367 26.6606 73.2333 26.5997 72.1418 26.4802L71.8844 28.831ZM75.4479 29.0254L81.8773 29.0254L81.8773 26.6606L75.4479 26.6606L75.4479 29.0254ZM96.8605 29.0254L103.29 29.0254L103.29 26.6606L96.8605 26.6606L96.8605 29.0254Z" fill="#A3A3A3"/>
</svg>
