<svg width="54" height="70" viewBox="0 0 54 70" fill="none" xmlns="http://www.w3.org/2000/svg">
<path d="M49.8703 23.5784C53.8355 21.9784 54.1603 16.49 50.4115 14.4335L25.2824 0.648117C23.0956 -0.551512 20.3611 0.0179671 18.835 1.99082L1.24052 24.7358C-0.630913 27.1551 0.0503262 30.6682 2.69038 32.2126L6.23419 34.2858C8.27109 35.4774 9.21627 37.9169 8.51388 40.1698L1.5343 62.5568C-0.00422521 67.4916 5.9644 71.2937 9.78637 67.8135L36.844 43.1754C38.9429 41.2642 38.5859 37.8657 36.1357 36.4323C33.1187 34.6674 33.4444 30.2064 36.6859 28.8985L49.8703 23.5784Z" fill="url(#paint0_linear_10_59)"/>
<defs>
<linearGradient id="paint0_linear_10_59" x1="53.9533" y1="16.164" x2="16.5319" y2="-1.70836" gradientUnits="userSpaceOnUse">
<stop stop-color="#FF6432"/>
<stop offset="1" stop-color="#FFA228"/>
</linearGradient>
</defs>
</svg>
